# xmcd
# 
# Track frame offsets:
#     150
#     18925
#     37012
# 
# Disc length: 707
# 
# Revision: 2
# Processed by: cddbd v1.5.2PL0 Copyright (c) Steve Scherf et al.
# Submitted via: BonkEnc v1.0
# 
DISCID=1b02c103
DTITLE=FANATIC◇CRISIS - Behind
DYEAR=2000
DGENRE=JPop
TTITLE0=Behind
TTITLE1=ノイド NOID
TTITLE2=オヴラート OBLATE
EXTD=YEAR: 2000
EXTT0=
EXTT1=
EXTT2=
PLAYORDER=
